<mxfile host="Electron" agent="Mozilla/5.0 (X11; Linux x86_64) AppleWebKit/537.36 (KHTML, like Gecko) draw.io/24.7.5 Chrome/126.0.6478.183 Electron/31.3.0 Safari/537.36" version="24.7.5">
  <diagram name="第 1 页" id="huckOj3Etd9BhcJPRhfS">
    <mxGraphModel dx="1619" dy="552" grid="1" gridSize="10" guides="1" tooltips="1" connect="1" arrows="1" fold="1" page="0" pageScale="1" pageWidth="827" pageHeight="1169" math="0" shadow="0">
      <root>
        <mxCell id="0" />
        <mxCell id="1" parent="0" />
        <mxCell id="O1hQJYMaAqLJGhxnyRPd-37" style="edgeStyle=orthogonalEdgeStyle;rounded=0;orthogonalLoop=1;jettySize=auto;html=1;entryX=0;entryY=0.5;entryDx=0;entryDy=0;fontFamily=Ubuntu mono;fillColor=#f5f5f5;gradientColor=#b3b3b3;strokeColor=#666666;strokeWidth=2;" parent="1" source="O1hQJYMaAqLJGhxnyRPd-11" target="O1hQJYMaAqLJGhxnyRPd-34" edge="1">
          <mxGeometry relative="1" as="geometry" />
        </mxCell>
        <mxCell id="O1hQJYMaAqLJGhxnyRPd-26" value="" style="endArrow=classic;html=1;rounded=0;fontFamily=Ubuntu mono;entryX=0;entryY=0.5;entryDx=0;entryDy=0;strokeWidth=2;fillColor=#f5f5f5;strokeColor=#666666;gradientColor=#b3b3b3;" parent="1" target="O1hQJYMaAqLJGhxnyRPd-11" edge="1">
          <mxGeometry width="50" height="50" relative="1" as="geometry">
            <mxPoint x="-180" y="260" as="sourcePoint" />
            <mxPoint x="-140" y="260" as="targetPoint" />
            <Array as="points">
              <mxPoint x="-140" y="260" />
              <mxPoint x="-140" y="180" />
              <mxPoint x="-400" y="180" />
              <mxPoint x="-400" y="400" />
            </Array>
          </mxGeometry>
        </mxCell>
        <mxCell id="O1hQJYMaAqLJGhxnyRPd-10" value="" style="group;fontFamily=Ubuntu mono;" parent="1" vertex="1" connectable="0">
          <mxGeometry x="-320" y="360" width="40" height="80" as="geometry" />
        </mxCell>
        <mxCell id="O1hQJYMaAqLJGhxnyRPd-11" value="&lt;font style=&quot;font-size: 14px;&quot;&gt;PC&lt;/font&gt;" style="rounded=0;whiteSpace=wrap;html=1;fontFamily=Ubuntu mono;" parent="O1hQJYMaAqLJGhxnyRPd-10" vertex="1">
          <mxGeometry width="40" height="80" as="geometry" />
        </mxCell>
        <mxCell id="O1hQJYMaAqLJGhxnyRPd-12" value="" style="endArrow=none;html=1;rounded=0;exitX=0;exitY=1;exitDx=0;exitDy=0;fontFamily=Ubuntu mono;" parent="O1hQJYMaAqLJGhxnyRPd-10" source="O1hQJYMaAqLJGhxnyRPd-11" edge="1">
          <mxGeometry width="50" height="50" relative="1" as="geometry">
            <mxPoint x="20" y="80" as="sourcePoint" />
            <mxPoint x="40" y="80" as="targetPoint" />
            <Array as="points">
              <mxPoint x="20" y="60" />
            </Array>
          </mxGeometry>
        </mxCell>
        <mxCell id="O1hQJYMaAqLJGhxnyRPd-27" value="" style="endArrow=classic;html=1;rounded=0;fontFamily=Ubuntu mono;" parent="1" edge="1">
          <mxGeometry width="50" height="50" relative="1" as="geometry">
            <mxPoint x="-260" y="220" as="sourcePoint" />
            <mxPoint x="-220" y="220" as="targetPoint" />
          </mxGeometry>
        </mxCell>
        <mxCell id="O1hQJYMaAqLJGhxnyRPd-28" value="" style="endArrow=classic;html=1;rounded=0;fontFamily=Ubuntu mono;startArrow=oval;startFill=1;startSize=2;strokeWidth=2;fillColor=#f5f5f5;gradientColor=#b3b3b3;strokeColor=#666666;" parent="1" edge="1">
          <mxGeometry width="50" height="50" relative="1" as="geometry">
            <mxPoint x="-260" y="400" as="sourcePoint" />
            <mxPoint x="-220" y="300" as="targetPoint" />
            <Array as="points">
              <mxPoint x="-260" y="300" />
            </Array>
          </mxGeometry>
        </mxCell>
        <mxCell id="O1hQJYMaAqLJGhxnyRPd-29" value="&lt;font style=&quot;font-size: 12px;&quot;&gt;+4&lt;/font&gt;" style="text;strokeColor=none;align=right;fillColor=none;html=1;verticalAlign=middle;whiteSpace=wrap;rounded=0;fontFamily=Ubuntu mono;" parent="1" vertex="1">
          <mxGeometry x="-280" y="215" width="20" height="10" as="geometry" />
        </mxCell>
        <mxCell id="O1hQJYMaAqLJGhxnyRPd-40" value="" style="endArrow=classic;html=1;rounded=0;entryX=0;entryY=0.5;entryDx=0;entryDy=0;fontFamily=Ubuntu mono;fillColor=#f8cecc;strokeColor=#b85450;gradientColor=#ea6b66;strokeWidth=2;" parent="1" target="O1hQJYMaAqLJGhxnyRPd-21" edge="1">
          <mxGeometry width="50" height="50" relative="1" as="geometry">
            <mxPoint x="-160" y="420" as="sourcePoint" />
            <mxPoint x="-110" y="370" as="targetPoint" />
          </mxGeometry>
        </mxCell>
        <mxCell id="O1hQJYMaAqLJGhxnyRPd-41" value="" style="endArrow=classic;html=1;rounded=0;entryX=0;entryY=0.5;entryDx=0;entryDy=0;startArrow=oval;startFill=1;startSize=2;fontFamily=Ubuntu mono;fillColor=#f8cecc;strokeColor=#b85450;gradientColor=#ea6b66;strokeWidth=2;" parent="1" target="O1hQJYMaAqLJGhxnyRPd-15" edge="1">
          <mxGeometry width="50" height="50" relative="1" as="geometry">
            <mxPoint x="-120" y="390" as="sourcePoint" />
            <mxPoint x="-120" y="360" as="targetPoint" />
            <Array as="points">
              <mxPoint x="-120" y="360" />
            </Array>
          </mxGeometry>
        </mxCell>
        <mxCell id="O1hQJYMaAqLJGhxnyRPd-42" value="" style="endArrow=classic;html=1;rounded=0;entryX=0;entryY=0.5;entryDx=0;entryDy=0;endSize=6;startSize=2;startArrow=oval;startFill=1;fontFamily=Ubuntu mono;fillColor=#f8cecc;strokeColor=#b85450;gradientColor=#ea6b66;strokeWidth=2;" parent="1" target="O1hQJYMaAqLJGhxnyRPd-16" edge="1">
          <mxGeometry width="50" height="50" relative="1" as="geometry">
            <mxPoint x="-120" y="420" as="sourcePoint" />
            <mxPoint x="-70" y="340" as="targetPoint" />
            <Array as="points">
              <mxPoint x="-120" y="390" />
            </Array>
          </mxGeometry>
        </mxCell>
        <mxCell id="O1hQJYMaAqLJGhxnyRPd-49" value="" style="endArrow=classic;html=1;rounded=0;entryX=0;entryY=0.5;entryDx=0;entryDy=0;fontFamily=Ubuntu mono;strokeWidth=2;fillColor=#ffcd28;gradientColor=#ffa500;strokeColor=#d79b00;" parent="1" target="O1hQJYMaAqLJGhxnyRPd-14" edge="1">
          <mxGeometry width="50" height="50" relative="1" as="geometry">
            <mxPoint x="480" y="380" as="sourcePoint" />
            <mxPoint x="20" y="320" as="targetPoint" />
            <Array as="points">
              <mxPoint x="720" y="380" />
              <mxPoint x="720" y="240" />
              <mxPoint x="-40" y="240" />
              <mxPoint x="-40" y="320" />
            </Array>
          </mxGeometry>
        </mxCell>
        <mxCell id="O1hQJYMaAqLJGhxnyRPd-46" style="edgeStyle=orthogonalEdgeStyle;rounded=0;orthogonalLoop=1;jettySize=auto;html=1;entryX=0;entryY=0.5;entryDx=0;entryDy=0;fontFamily=Ubuntu mono;fillColor=#dae8fc;gradientColor=#7ea6e0;strokeColor=#6c8ebf;strokeWidth=2;" parent="1" source="O1hQJYMaAqLJGhxnyRPd-19" target="O1hQJYMaAqLJGhxnyRPd-43" edge="1">
          <mxGeometry relative="1" as="geometry" />
        </mxCell>
        <mxCell id="O1hQJYMaAqLJGhxnyRPd-47" style="edgeStyle=orthogonalEdgeStyle;rounded=0;orthogonalLoop=1;jettySize=auto;html=1;entryX=0;entryY=0.5;entryDx=0;entryDy=0;fontFamily=Ubuntu mono;fillColor=#dae8fc;gradientColor=#7ea6e0;strokeColor=#6c8ebf;strokeWidth=2;" parent="1" source="O1hQJYMaAqLJGhxnyRPd-20" target="O1hQJYMaAqLJGhxnyRPd-45" edge="1">
          <mxGeometry relative="1" as="geometry" />
        </mxCell>
        <mxCell id="O1hQJYMaAqLJGhxnyRPd-50" value="" style="group;fontFamily=Ubuntu mono;" parent="1" vertex="1" connectable="0">
          <mxGeometry x="440" y="320" width="40" height="120" as="geometry" />
        </mxCell>
        <mxCell id="O1hQJYMaAqLJGhxnyRPd-1" value="" style="shape=parallelogram;perimeter=parallelogramPerimeter;whiteSpace=wrap;html=1;fixedSize=1;direction=south;size=40;strokeColor=none;portConstraintRotation=0;noLabel=0;fixedWidth=0;autosize=0;comic=0;treeMoving=0;fontFamily=Ubuntu mono;" parent="O1hQJYMaAqLJGhxnyRPd-50" vertex="1">
          <mxGeometry width="40" height="80" as="geometry" />
        </mxCell>
        <mxCell id="O1hQJYMaAqLJGhxnyRPd-2" value="" style="shape=parallelogram;perimeter=parallelogramPerimeter;whiteSpace=wrap;html=1;fixedSize=1;direction=south;size=40;rotation=-180;flipV=1;strokeColor=none;fontFamily=Ubuntu mono;" parent="O1hQJYMaAqLJGhxnyRPd-50" vertex="1">
          <mxGeometry y="40" width="40" height="80" as="geometry" />
        </mxCell>
        <mxCell id="O1hQJYMaAqLJGhxnyRPd-3" value="" style="endArrow=none;html=1;rounded=0;fontFamily=Ubuntu mono;" parent="O1hQJYMaAqLJGhxnyRPd-50" edge="1">
          <mxGeometry width="50" height="50" relative="1" as="geometry">
            <mxPoint y="120" as="sourcePoint" />
            <mxPoint y="120" as="targetPoint" />
            <Array as="points">
              <mxPoint x="40" y="80" />
              <mxPoint x="40" y="40" />
              <mxPoint />
              <mxPoint y="50" />
              <mxPoint x="10" y="60" />
              <mxPoint y="70" />
            </Array>
          </mxGeometry>
        </mxCell>
        <mxCell id="O1hQJYMaAqLJGhxnyRPd-4" value="&lt;font style=&quot;font-size: 14px;&quot;&gt;Add&lt;/font&gt;" style="text;strokeColor=none;align=center;fillColor=none;html=1;verticalAlign=middle;whiteSpace=wrap;rounded=0;fontFamily=Ubuntu mono;" parent="O1hQJYMaAqLJGhxnyRPd-50" vertex="1">
          <mxGeometry x="10" y="55" width="25" height="10" as="geometry" />
        </mxCell>
        <mxCell id="O1hQJYMaAqLJGhxnyRPd-43" value="&lt;font style=&quot;font-size: 14px;&quot;&gt;A&lt;/font&gt;" style="text;strokeColor=none;align=left;fillColor=none;html=1;verticalAlign=middle;whiteSpace=wrap;rounded=0;fontFamily=Ubuntu mono;" parent="O1hQJYMaAqLJGhxnyRPd-50" vertex="1">
          <mxGeometry y="25" width="10" height="10" as="geometry" />
        </mxCell>
        <mxCell id="O1hQJYMaAqLJGhxnyRPd-45" value="&lt;font style=&quot;font-size: 14px;&quot;&gt;B&lt;/font&gt;" style="text;strokeColor=none;align=left;fillColor=none;html=1;verticalAlign=middle;whiteSpace=wrap;rounded=0;fontFamily=Ubuntu mono;" parent="O1hQJYMaAqLJGhxnyRPd-50" vertex="1">
          <mxGeometry y="85" width="10" height="10" as="geometry" />
        </mxCell>
        <mxCell id="GMoKfWXGdyq1IP5k9Yxu-2" value="" style="endArrow=classic;html=1;rounded=0;entryX=0.25;entryY=1;entryDx=0;entryDy=0;startSize=6;endSize=2;strokeColor=#CC6600;" parent="1" edge="1">
          <mxGeometry width="50" height="50" relative="1" as="geometry">
            <mxPoint x="119.88" y="560" as="sourcePoint" />
            <mxPoint x="119.88" y="480" as="targetPoint" />
          </mxGeometry>
        </mxCell>
        <mxCell id="O1hQJYMaAqLJGhxnyRPd-51" value="" style="group;fontFamily=Ubuntu mono;" parent="1" vertex="1" connectable="0">
          <mxGeometry x="-220" y="200" width="45" height="120" as="geometry" />
        </mxCell>
        <mxCell id="O1hQJYMaAqLJGhxnyRPd-22" value="" style="shape=parallelogram;perimeter=parallelogramPerimeter;whiteSpace=wrap;html=1;fixedSize=1;direction=south;size=40;strokeColor=none;portConstraintRotation=0;noLabel=0;fixedWidth=0;autosize=0;comic=0;treeMoving=0;fontFamily=Ubuntu mono;" parent="O1hQJYMaAqLJGhxnyRPd-51" vertex="1">
          <mxGeometry width="40" height="80" as="geometry" />
        </mxCell>
        <mxCell id="O1hQJYMaAqLJGhxnyRPd-23" value="" style="shape=parallelogram;perimeter=parallelogramPerimeter;whiteSpace=wrap;html=1;fixedSize=1;direction=south;size=40;rotation=-180;flipV=1;strokeColor=none;fontFamily=Ubuntu mono;" parent="O1hQJYMaAqLJGhxnyRPd-51" vertex="1">
          <mxGeometry y="40" width="40" height="80" as="geometry" />
        </mxCell>
        <mxCell id="O1hQJYMaAqLJGhxnyRPd-24" value="" style="endArrow=none;html=1;rounded=0;fontFamily=Ubuntu mono;" parent="O1hQJYMaAqLJGhxnyRPd-51" edge="1">
          <mxGeometry width="50" height="50" relative="1" as="geometry">
            <mxPoint y="120" as="sourcePoint" />
            <mxPoint y="120" as="targetPoint" />
            <Array as="points">
              <mxPoint x="40" y="80" />
              <mxPoint x="40" y="40" />
              <mxPoint />
              <mxPoint y="50" />
              <mxPoint x="10" y="60" />
              <mxPoint y="70" />
            </Array>
          </mxGeometry>
        </mxCell>
        <mxCell id="O1hQJYMaAqLJGhxnyRPd-25" value="&lt;font style=&quot;font-size: 14px;&quot;&gt;Add&lt;/font&gt;" style="text;strokeColor=none;align=center;fillColor=none;html=1;verticalAlign=middle;whiteSpace=wrap;rounded=0;fontFamily=Ubuntu mono;" parent="O1hQJYMaAqLJGhxnyRPd-51" vertex="1">
          <mxGeometry x="10" y="55" width="25" height="10" as="geometry" />
        </mxCell>
        <mxCell id="O1hQJYMaAqLJGhxnyRPd-52" value="&lt;font style=&quot;font-size: 12px;&quot;&gt;inst[11:7]&lt;/font&gt;" style="text;strokeColor=none;align=left;fillColor=none;html=1;verticalAlign=middle;whiteSpace=wrap;rounded=0;fontFamily=Ubuntu mono;fontSize=12;" parent="1" vertex="1">
          <mxGeometry x="-120" y="345" width="80" height="10" as="geometry" />
        </mxCell>
        <mxCell id="O1hQJYMaAqLJGhxnyRPd-53" value="&lt;font style=&quot;font-size: 12px;&quot;&gt;inst[19:15]&lt;/font&gt;" style="text;strokeColor=none;align=left;fillColor=none;html=1;verticalAlign=middle;whiteSpace=wrap;rounded=0;fontFamily=Ubuntu mono;fontSize=12;" parent="1" vertex="1">
          <mxGeometry x="-120" y="375" width="80" height="10" as="geometry" />
        </mxCell>
        <mxCell id="O1hQJYMaAqLJGhxnyRPd-54" value="&lt;font style=&quot;font-size: 12px;&quot;&gt;pc&lt;/font&gt;" style="text;strokeColor=none;align=left;fillColor=none;html=1;verticalAlign=middle;whiteSpace=wrap;rounded=0;fontFamily=Ubuntu mono;" parent="1" vertex="1">
          <mxGeometry x="-280" y="405" width="20" height="10" as="geometry" />
        </mxCell>
        <mxCell id="O1hQJYMaAqLJGhxnyRPd-55" value="&lt;font style=&quot;font-size: 12px;&quot;&gt;R[rs1]&lt;/font&gt;" style="text;strokeColor=none;align=left;fillColor=none;html=1;verticalAlign=middle;whiteSpace=wrap;rounded=0;fontFamily=Ubuntu mono;fontSize=12;" parent="1" vertex="1">
          <mxGeometry x="200" y="335" width="40" height="10" as="geometry" />
        </mxCell>
        <mxCell id="O1hQJYMaAqLJGhxnyRPd-56" value="&lt;font style=&quot;font-size: 12px;&quot;&gt;R[rs2]&lt;/font&gt;" style="text;strokeColor=none;align=left;fillColor=none;html=1;verticalAlign=middle;whiteSpace=wrap;rounded=0;fontFamily=Ubuntu mono;fontSize=12;" parent="1" vertex="1">
          <mxGeometry x="200" y="395" width="40" height="10" as="geometry" />
        </mxCell>
        <mxCell id="O1hQJYMaAqLJGhxnyRPd-57" value="&lt;font style=&quot;font-size: 12px;&quot;&gt;pc+4&lt;/font&gt;" style="text;strokeColor=none;align=left;fillColor=none;html=1;verticalAlign=middle;whiteSpace=wrap;rounded=0;fontFamily=Ubuntu mono;" parent="1" vertex="1">
          <mxGeometry x="-400" y="385" width="30" height="10" as="geometry" />
        </mxCell>
        <mxCell id="O1hQJYMaAqLJGhxnyRPd-58" value="&lt;font style=&quot;font-size: 12px;&quot;&gt;add&lt;/font&gt;" style="text;strokeColor=none;align=left;fillColor=none;html=1;verticalAlign=middle;whiteSpace=wrap;rounded=0;fontFamily=Ubuntu mono;fontSize=12;" parent="1" vertex="1">
          <mxGeometry x="480" y="365" width="20" height="10" as="geometry" />
        </mxCell>
        <mxCell id="O1hQJYMaAqLJGhxnyRPd-59" value="&lt;font style=&quot;font-size: 12px;&quot;&gt;inst[24:20]&lt;/font&gt;" style="text;strokeColor=none;align=left;fillColor=none;html=1;verticalAlign=middle;whiteSpace=wrap;rounded=0;fontFamily=Ubuntu mono;fontSize=12;" parent="1" vertex="1">
          <mxGeometry x="-120" y="405" width="80" height="10" as="geometry" />
        </mxCell>
        <mxCell id="nMF6nW8Z0WpCOARFJ0UV-2" value="&lt;font style=&quot;font-size: 28px;&quot;&gt;PC = PC + 4&lt;/font&gt;" style="text;strokeColor=none;align=center;fillColor=none;html=1;verticalAlign=middle;whiteSpace=wrap;rounded=0;fontFamily=Ubuntu mono;fontStyle=1" parent="1" vertex="1">
          <mxGeometry x="-400" y="40" width="280" height="40" as="geometry" />
        </mxCell>
        <mxCell id="nMF6nW8Z0WpCOARFJ0UV-3" value="&lt;font style=&quot;font-size: 28px;&quot;&gt;R[rd] = R[rs1] + R[rs2]&lt;/font&gt;" style="text;strokeColor=none;align=center;fillColor=none;html=1;verticalAlign=middle;whiteSpace=wrap;rounded=0;fontFamily=Ubuntu mono;fontStyle=1" parent="1" vertex="1">
          <mxGeometry x="-120" y="40" width="840" height="40" as="geometry" />
        </mxCell>
        <mxCell id="nMF6nW8Z0WpCOARFJ0UV-5" value="&lt;font color=&quot;#666666&quot; style=&quot;font-size: 20px;&quot;&gt;Increment PC to next instruction&lt;/font&gt;" style="text;strokeColor=none;align=left;fillColor=none;html=1;verticalAlign=middle;whiteSpace=wrap;rounded=0;fontSize=20;" parent="1" vertex="1">
          <mxGeometry x="-400" y="110" width="240" height="40" as="geometry" />
        </mxCell>
        <mxCell id="nMF6nW8Z0WpCOARFJ0UV-6" value="&lt;font color=&quot;#b85450&quot; style=&quot;font-size: 20px;&quot;&gt;Split instruction to index into RegFile&lt;/font&gt;" style="text;strokeColor=none;align=left;fillColor=none;html=1;verticalAlign=middle;whiteSpace=wrap;rounded=0;fontSize=20;" parent="1" vertex="1">
          <mxGeometry x="-160" y="110" width="200" height="40" as="geometry" />
        </mxCell>
        <mxCell id="nMF6nW8Z0WpCOARFJ0UV-7" value="&lt;font color=&quot;#6c8ebf&quot; style=&quot;font-size: 20px;&quot;&gt;Feed read register values into Add&lt;/font&gt;" style="text;strokeColor=none;align=left;fillColor=none;html=1;verticalAlign=middle;whiteSpace=wrap;rounded=0;fontSize=20;" parent="1" vertex="1">
          <mxGeometry x="200" y="110" width="200" height="40" as="geometry" />
        </mxCell>
        <mxCell id="nMF6nW8Z0WpCOARFJ0UV-9" value="&lt;font color=&quot;#d79b00&quot; style=&quot;font-size: 20px;&quot;&gt;Write Add output to destination register&lt;/font&gt;" style="text;strokeColor=none;align=left;fillColor=none;html=1;verticalAlign=middle;whiteSpace=wrap;rounded=0;fontSize=20;" parent="1" vertex="1">
          <mxGeometry x="480" y="110" width="200" height="40" as="geometry" />
        </mxCell>
        <mxCell id="GMoKfWXGdyq1IP5k9Yxu-1" value="&lt;font style=&quot;font-size: 14px;&quot; face=&quot;Ubuntu mono&quot;&gt;Control Logic&lt;/font&gt;" style="rounded=0;whiteSpace=wrap;html=1;align=right;labelPosition=left;verticalLabelPosition=bottom;verticalAlign=top;spacingTop=-25;spacingRight=-110;" parent="1" vertex="1">
          <mxGeometry x="-400" y="560" width="1120" height="80" as="geometry" />
        </mxCell>
        <mxCell id="GMoKfWXGdyq1IP5k9Yxu-3" value="&lt;font style=&quot;font-size: 14px;&quot; color=&quot;#cc6600&quot;&gt;RegWEn&lt;/font&gt;&lt;div style=&quot;&quot;&gt;&lt;font color=&quot;#d79b00&quot; style=&quot;font-size: 12px;&quot;&gt;1&lt;/font&gt;&lt;/div&gt;" style="text;strokeColor=none;align=center;fillColor=none;html=1;verticalAlign=middle;whiteSpace=wrap;rounded=0;fontFamily=Ubuntu mono;" parent="1" vertex="1">
          <mxGeometry x="95" y="560" width="50" height="30" as="geometry" />
        </mxCell>
        <mxCell id="GMoKfWXGdyq1IP5k9Yxu-4" value="" style="group" parent="1" vertex="1" connectable="0">
          <mxGeometry x="-240" y="360" width="80" height="120" as="geometry" />
        </mxCell>
        <mxCell id="O1hQJYMaAqLJGhxnyRPd-33" value="&lt;font style=&quot;font-size: 14px;&quot;&gt;IMEM&lt;/font&gt;" style="rounded=0;whiteSpace=wrap;html=1;labelPosition=left;verticalLabelPosition=bottom;align=right;verticalAlign=top;spacingTop=-25;spacingBottom=0;spacingRight=-40;spacingLeft=0;fontFamily=Ubuntu mono;" parent="GMoKfWXGdyq1IP5k9Yxu-4" vertex="1">
          <mxGeometry width="80" height="120" as="geometry" />
        </mxCell>
        <mxCell id="O1hQJYMaAqLJGhxnyRPd-34" value="&lt;font style=&quot;font-size: 14px;&quot;&gt;addr&lt;/font&gt;" style="text;strokeColor=none;align=center;fillColor=none;html=1;verticalAlign=middle;whiteSpace=wrap;rounded=0;fontFamily=Ubuntu mono;fontSize=14;" parent="GMoKfWXGdyq1IP5k9Yxu-4" vertex="1">
          <mxGeometry y="35" width="40" height="10" as="geometry" />
        </mxCell>
        <mxCell id="O1hQJYMaAqLJGhxnyRPd-35" value="&lt;font style=&quot;font-size: 14px;&quot;&gt;inst&lt;/font&gt;" style="text;strokeColor=none;align=center;fillColor=none;html=1;verticalAlign=middle;whiteSpace=wrap;rounded=0;fontFamily=Ubuntu mono;fontSize=14;" parent="GMoKfWXGdyq1IP5k9Yxu-4" vertex="1">
          <mxGeometry x="40" y="55" width="40" height="10" as="geometry" />
        </mxCell>
        <mxCell id="O1hQJYMaAqLJGhxnyRPd-44" value="" style="group;fontFamily=Ubuntu mono;" parent="1" vertex="1" connectable="0">
          <mxGeometry x="40" y="280" width="160" height="200" as="geometry" />
        </mxCell>
        <mxCell id="maXkZf1soTtl2lAM2pMu-3" value="" style="group" parent="O1hQJYMaAqLJGhxnyRPd-44" vertex="1" connectable="0">
          <mxGeometry width="160" height="200" as="geometry" />
        </mxCell>
        <mxCell id="O1hQJYMaAqLJGhxnyRPd-13" value="&lt;font style=&quot;font-size: 14px;&quot;&gt;RegFile&lt;/font&gt;" style="rounded=0;whiteSpace=wrap;html=1;labelPosition=center;verticalLabelPosition=top;align=center;verticalAlign=bottom;spacingTop=0;spacingBottom=-20;fontFamily=Ubuntu mono;" parent="maXkZf1soTtl2lAM2pMu-3" vertex="1">
          <mxGeometry width="160" height="200" as="geometry" />
        </mxCell>
        <mxCell id="O1hQJYMaAqLJGhxnyRPd-14" value="&lt;font style=&quot;font-size: 14px;&quot;&gt;dataW&lt;/font&gt;" style="text;strokeColor=none;align=left;fillColor=none;html=1;verticalAlign=middle;whiteSpace=wrap;rounded=0;fontFamily=Ubuntu mono;" parent="maXkZf1soTtl2lAM2pMu-3" vertex="1">
          <mxGeometry y="35" width="40" height="10" as="geometry" />
        </mxCell>
        <mxCell id="O1hQJYMaAqLJGhxnyRPd-15" value="&lt;font style=&quot;font-size: 14px;&quot;&gt;rsW&lt;/font&gt;" style="text;strokeColor=none;align=left;fillColor=none;html=1;verticalAlign=middle;whiteSpace=wrap;rounded=0;fontFamily=Ubuntu mono;" parent="maXkZf1soTtl2lAM2pMu-3" vertex="1">
          <mxGeometry y="75" width="30" height="10" as="geometry" />
        </mxCell>
        <mxCell id="O1hQJYMaAqLJGhxnyRPd-16" value="&lt;font style=&quot;font-size: 14px;&quot;&gt;rsR1&lt;/font&gt;" style="text;strokeColor=none;align=left;fillColor=none;html=1;verticalAlign=middle;whiteSpace=wrap;rounded=0;fontFamily=Ubuntu mono;" parent="maXkZf1soTtl2lAM2pMu-3" vertex="1">
          <mxGeometry y="105" width="30" height="10" as="geometry" />
        </mxCell>
        <mxCell id="O1hQJYMaAqLJGhxnyRPd-18" value="" style="endArrow=none;html=1;rounded=0;fontFamily=Ubuntu mono;" parent="maXkZf1soTtl2lAM2pMu-3" edge="1">
          <mxGeometry width="50" height="50" relative="1" as="geometry">
            <mxPoint x="110" y="200" as="sourcePoint" />
            <mxPoint x="150" y="200" as="targetPoint" />
            <Array as="points">
              <mxPoint x="130" y="180" />
            </Array>
          </mxGeometry>
        </mxCell>
        <mxCell id="O1hQJYMaAqLJGhxnyRPd-19" value="&lt;font style=&quot;font-size: 14px;&quot;&gt;data1&lt;/font&gt;" style="text;strokeColor=none;align=right;fillColor=none;html=1;verticalAlign=middle;whiteSpace=wrap;rounded=0;fontFamily=Ubuntu mono;" parent="maXkZf1soTtl2lAM2pMu-3" vertex="1">
          <mxGeometry x="120" y="65" width="40" height="10" as="geometry" />
        </mxCell>
        <mxCell id="O1hQJYMaAqLJGhxnyRPd-20" value="&lt;font style=&quot;font-size: 14px;&quot;&gt;data2&lt;/font&gt;" style="text;strokeColor=none;align=right;fillColor=none;html=1;verticalAlign=middle;whiteSpace=wrap;rounded=0;fontFamily=Ubuntu mono;" parent="maXkZf1soTtl2lAM2pMu-3" vertex="1">
          <mxGeometry x="120" y="125" width="40" height="10" as="geometry" />
        </mxCell>
        <mxCell id="O1hQJYMaAqLJGhxnyRPd-21" value="&lt;font style=&quot;font-size: 14px;&quot;&gt;rsR2&lt;/font&gt;" style="text;strokeColor=none;align=left;fillColor=none;html=1;verticalAlign=middle;whiteSpace=wrap;rounded=0;fontFamily=Ubuntu mono;" parent="maXkZf1soTtl2lAM2pMu-3" vertex="1">
          <mxGeometry y="135" width="30" height="10" as="geometry" />
        </mxCell>
      </root>
    </mxGraphModel>
  </diagram>
</mxfile>
